<?xml version="1.0" encoding="UTF-8"?>
<svg width="80px" height="80px" viewBox="0 0 80 80" version="1.1" xmlns="http://www.w3.org/2000/svg" xmlns:xlink="http://www.w3.org/1999/xlink">
    <!-- Generator: Sketch 52.5 (67469) - http://www.bohemiancoding.com/sketch -->
    <title>home_icon_help</title>
    <desc>Created with Sketch.</desc>
    <g id="home_icon_help" stroke="none" stroke-width="1" fill="none" fill-rule="evenodd">
        <g>
            <rect id="矩形" fill="#000000" opacity="0" x="0" y="0" width="80" height="80"></rect>
            <path d="M69.526998,75.3841349 C69.526998,71.5316055 68.7239749,67.7978908 67.1371176,64.2886692 C65.6004691,60.8971313 63.4002173,57.8520378 60.6002483,55.2429757 C56.9886127,51.8713538 52.606961,49.4301977 47.7881238,48.0888938 L47.1488813,47.9109632 L47.7689783,47.6748065 C50.4132497,46.6677668 52.8219269,45.1083057 54.8602919,43.074771 C58.6855719,39.2585557 60.7967192,34.1837278 60.8057824,28.7820622 C60.8148466,23.3707877 58.7215177,18.2869892 54.9059135,14.4532576 C51.0750123,10.6223565 45.9978691,8.50747356 40.5950653,8.49842333 L40.5584216,8.49842333 C35.1584576,8.49842333 30.0831132,10.5993026 26.2565513,14.4167968 C22.4312713,18.2330121 20.3201239,23.30784 20.3110607,28.7095056 C20.3019966,34.1207801 22.3953254,39.2045786 26.2109297,43.0383101 C27.9670705,44.7944509 29.9957698,46.2003724 32.2147513,47.2047563 L32.81979,47.4786166 L32.1702189,47.6169229 C26.6358557,48.7952962 21.5864895,51.3942945 17.5112938,55.1793258 C11.7414449,60.5312015 8.55743749,67.6636639 8.53925175,75.2650427 L8.53925175,76.3298153 L69.5193939,76.4480644 L69.526998,75.3841349 Z M10.6923753,74.2002426 L10.7049202,73.9706094 C11.4654275,60.0496172 23.9379859,49.0297882 39.0285444,49.0297882 L39.0839085,49.0297886 C54.1979086,49.0573856 66.6567589,60.1281498 67.3613768,74.0814384 L67.3729729,74.3110732 L10.6923753,74.2002426 Z M40.5492606,10.6271232 L40.5863224,10.6271236 C45.4297562,10.6364022 49.9822427,12.5308397 53.3916505,15.9587772 C56.810847,19.3872398 58.6863594,23.9399733 58.6770819,28.7828336 C58.6585373,38.7505494 50.5274091,46.8644446 40.5584216,46.8644446 L40.5213598,46.8644442 C35.677926,46.8551656 31.1254396,44.9607281 27.7160317,41.5327906 C24.2968352,38.104328 22.4213228,33.5515945 22.4306003,28.7087342 C22.4491449,18.7410184 30.5802732,10.6271232 40.5492606,10.6271232 Z M64.2577762,39.2891867 L64.2577762,39.0710049 L64.2577762,39.2891867 Z M64.2577762,38.961914 C68.0913007,38.961914 71.255529,35.955218 71.4510839,32.1241206 C71.6426898,28.4003009 68.9496183,25.149122 65.2835433,24.6216811 L65.1258722,24.5989969 L65.0994531,24.4419085 C64.2400896,19.3321188 61.8285619,14.6476498 58.1302695,10.9351604 C53.3977044,6.1844281 47.0952699,3.56059631 40.3935246,3.55151515 L40.3477199,3.55151515 C33.6548134,3.55151515 27.3705232,6.14797559 22.6287059,10.871625 C18.8959748,14.5900817 16.4603864,19.2945967 15.5958904,24.4280609 L15.5692878,24.58603 L15.410602,24.6079567 C13.7299333,24.8401861 12.2077779,25.6459073 11.0665785,26.9130322 C9.7766222,28.3453285 9.1190674,30.1944099 9.21687901,32.1150744 C9.41253378,35.9570226 12.5692969,38.961914 16.4101809,38.961914 C16.4863014,38.9619092 16.5185634,38.9617249 16.559099,38.9607983 C16.6385548,38.9589822 16.703553,38.9544323 16.7840449,38.9438643 L17.8483917,38.890647 L17.4292545,30.7149474 L17.4647721,30.7115102 C17.404259,30.0169361 17.3737605,29.3143955 17.3737607,28.6172117 C17.3922551,15.9670326 27.6928146,5.68937596 40.3477199,5.68937596 L40.3938537,5.68937621 C46.5247608,5.69862343 52.2968983,8.10307413 56.6255827,12.4502572 C60.9538094,16.7969806 63.3309269,22.5689418 63.3216794,28.7091401 C63.3216794,28.8777962 63.3197578,29.0468991 63.3156866,29.2224543 L63.2500681,30.5006677 C63.2441914,30.5741242 63.2379562,30.6474869 63.2313636,30.7207385 L63.2388382,30.7214618 L62.8195649,38.8998163 L63.8885614,38.9533075 C63.9885435,38.9604491 64.0705778,38.961914 64.2577762,38.961914 L64.2577762,39.0710049 L64.2577762,38.961914 Z M65.3701526,30.6886851 L65.3704988,30.6832249 C65.4084329,30.1841577 65.4331532,29.703815 65.444253,29.2309022 L65.5659623,26.8365055 L65.8377639,26.9262861 C67.9900856,27.637234 69.4348264,29.7110912 69.3218324,32.0086353 C69.2085432,34.3121833 67.5636261,36.2326448 65.339504,36.718261 L65.0605681,36.779164 L65.3701526,30.6886851 Z M14.8317827,26.9257678 L15.1021235,26.8387616 L15.6073746,36.7883218 L15.3284531,36.7274219 C13.1043309,36.2418058 11.4594139,34.3213442 11.3461259,32.0178213 C11.2790413,30.6569639 11.7405638,29.3551695 12.6477578,28.3524825 C13.2506539,27.682598 13.9980749,27.1940876 14.8317827,26.9257678 Z" id="合并形状" fill="#5068D0" fill-rule="nonzero"></path>
            <path d="M30.8640062,36.6724494 C33.2372115,39.3477653 36.7009215,41.7004474 40.5584216,41.7004474 C44.4119656,41.7004474 47.872527,39.3512217 50.2455321,36.6806771" id="路径" stroke="#556CD1" stroke-width="2" stroke-linecap="round"></path>
        </g>
    </g>
</svg>