<?xml version="1.0" encoding="UTF-8"?>
<svg width="80px" height="80px" viewBox="0 0 80 80" version="1.1" xmlns="http://www.w3.org/2000/svg" xmlns:xlink="http://www.w3.org/1999/xlink">
    <!-- Generator: Sketch 52.5 (67469) - http://www.bohemiancoding.com/sketch -->
    <title>home_icon_lightning</title>
    <desc>Created with Sketch.</desc>
    <g id="home_icon_lightning" stroke="none" stroke-width="1" fill="none" fill-rule="evenodd">
        <g>
            <rect id="矩形" fill="#000000" opacity="0" x="0" y="0" width="80" height="80"></rect>
            <path d="M18.6172249,47.6584063 L18.6172249,48.2105263 C18.6172249,48.2239887 18.621652,48.2505514 18.6339431,48.2751337 C18.6519479,48.3111433 18.6804483,48.3301436 18.7368421,48.3301436 L18.8277512,48.4210527 C18.8277512,48.4345151 18.8321783,48.4610777 18.8444695,48.48566 C18.8624743,48.5216696 18.8909746,48.5406699 19.0116509,48.5672965 L19.1578948,48.7511961 L20.1990941,48.7519178 L35.1464626,46.857181 L35.2475487,46.9624231 L30.5470494,74.9473684 L30.5470494,75.7894737 C30.5470494,75.8029361 30.5514765,75.8294988 30.5637677,75.8540811 C30.5817725,75.8900907 30.6102729,75.9090909 30.6666667,75.9090909 L30.7575758,76 C30.7575758,76.0587445 30.7778007,76.0876372 30.8486729,76.1348854 C30.9779427,76.2119397 31.0656283,76.2703968 31.0877193,76.3301436 C31.2011251,76.3301436 31.3153707,76.3758418 31.4276203,76.4506749 C31.4924683,76.4939069 31.5428434,76.5370855 31.508772,76.5406699 L31.7192982,76.5406699 C32.0131285,76.5406699 32.1325507,76.5108143 32.3508772,76.3301436 L32.5614035,76.3301436 C32.6201481,76.3301436 32.6490408,76.3099187 32.6962889,76.2390464 C32.7733432,76.1097766 32.8318003,76.022091 32.9063073,75.9503431 L61.1988755,32.5672965 C61.3378366,32.4283354 61.3827751,32.2935199 61.3827751,32.2105263 L61.3827751,31.7894737 C61.3827751,31.629155 61.4234765,31.6698564 61.2631579,31.6698564 L61.1722488,31.5789473 L61.1988755,31.4327035 L60.9883491,31.2221772 L60.8421052,31.0382775 L60.631579,31.0382775 C60.5924098,31.0382775 60.5400251,31.0295467 60.48566,31.0023642 C60.4146353,30.9668518 60.363285,30.9080674 60.3415937,30.8277512 L60.2105263,30.8277512 L60.0114322,30.8270295 L45.0640638,32.7217664 L44.9629128,32.6169157 L49.382775,5.58084777 L49.382775,5.1597952 C49.382775,5.14633279 49.3783479,5.11977011 49.3660568,5.0951878 C49.348052,5.05917821 49.3195516,5.04017796 49.2631579,5.04017796 L49.1722488,4.94926887 C49.1722488,4.93580646 49.1678217,4.90924379 49.1555305,4.88466149 C49.1375257,4.84865189 49.1090254,4.82965163 49.0526316,4.82965163 L48.9617225,4.73874254 C48.9617225,4.67999803 48.9414976,4.65110532 48.8706253,4.60385715 C48.7413556,4.52680286 48.6536699,4.46834578 48.6315789,4.40859897 L48.3803968,4.39900145 C48.1841124,4.30085923 48.0337531,4.2488118 47.8797913,4.22315151 C47.7523049,4.20190378 47.6526954,4.19807265 47.368421,4.19807265 C47.2976163,4.19807265 47.2144934,4.23132178 47.1293746,4.28806766 C47.0758015,4.32378305 47.0340714,4.35955176 47.0116508,4.38197231 L46.6023597,4.78856012 L18.8277512,47.1578948 L18.8277512,47.368421 C18.8277512,47.4075902 18.8190204,47.4599749 18.7918379,47.51434 C18.7563255,47.5853647 18.6975411,47.636715 18.6172249,47.6584063 Z M43.356138,35.4888719 L57.4462395,33.5674944 L34.1940925,69.916019 L34.2630153,69.486577 L38.2248804,46.1052631 L38.2248804,45.4736842 C38.2248804,45.4602218 38.2204532,45.4336591 38.2081621,45.4090768 C38.1901573,45.3730672 38.1616569,45.354067 38.0409807,45.3274403 L37.8304544,45.116914 L37.6842105,44.9330143 C37.6450414,44.9330143 37.5926567,44.9242835 37.5382916,44.897101 C37.4639123,44.8599114 37.4111099,44.7971994 37.3913513,44.7109639 C37.3709528,44.7053731 37.3495175,44.6974509 37.3277653,44.6865748 C37.2567405,44.6510624 37.2053903,44.5922779 37.1836989,44.5119617 L37.0526316,44.5119617 L36.8545737,44.5111026 L22.9757252,46.4327893 L45.7814665,10.8134491 L45.7160453,11.240694 L41.7751196,33.8947369 L41.7751196,34.5263158 C41.7751196,34.5397782 41.7795468,34.5663409 41.7918379,34.5909232 C41.8098427,34.6269328 41.8383431,34.645933 41.8947369,34.645933 L41.985646,34.7368421 C41.985646,34.7503045 41.9900731,34.7768672 42.0023642,34.8014495 C42.020369,34.8374591 42.0488694,34.8564593 42.1695456,34.883086 L42.3157895,35.0669857 C42.3549586,35.0669857 42.4073433,35.0757165 42.4617084,35.102899 C42.5360877,35.1400886 42.5888901,35.2028006 42.6086487,35.2890361 C42.6290472,35.2946269 42.6504825,35.3025491 42.6722347,35.3134252 C42.743291,35.3489534 42.7946553,35.4077743 42.8163299,35.4881452 L43.356138,35.4888719 Z M8.96172247,40 C8.96172247,24.1207999 20.8290302,10.8573383 36.631579,9.1722488 C37.4136576,9.1722488 38.0029309,8.38655111 37.8038278,7.57894734 C37.8038278,6.83417463 37.2694827,6.40669854 36.4309709,6.40615588 C19.2219944,8.29494601 6.19617229,22.7751075 6.19617222,40 C6.19617222,51.9022291 12.6478494,63.0618868 23.0116509,69.1988755 C23.1727793,69.3600039 23.2866354,69.3827751 23.7894737,69.3827751 C24.2584576,69.3827751 24.8012856,69.1415182 24.97132,68.8014494 C25.3802401,67.9836093 25.1583955,67.2071529 24.3755729,66.8155571 C14.8924913,61.3364433 8.96172247,51.0016383 8.96172247,40 Z M54.1865747,10.9880242 L54.1809041,10.9977957 C53.760997,11.6276564 54.0307757,12.5718817 54.7808477,12.7625567 C64.7902117,18.2996516 71.0382775,28.6936304 71.0382775,40 C71.0382775,54.9766368 60.284217,67.8689316 45.7062592,70.4039842 C44.929311,70.5982213 44.5119617,71.1720765 44.5072966,71.971252 C44.7215142,72.6139048 45.3418964,73.1722488 45.8947369,73.1722488 L46.0887938,73.1737531 C62.1214082,70.2203767 73.8038277,56.3008982 73.8038278,40 C73.8038278,27.5905504 67.0662323,16.2644201 56.160099,10.3914304 C55.5364605,9.97567136 54.5629497,10.2352743 54.1865747,10.9880242 Z" id="合并形状" fill="#5068D0" fill-rule="nonzero"></path>
        </g>
    </g>
</svg>