<?xml version="1.0" encoding="UTF-8"?>
<svg width="80px" height="80px" viewBox="0 0 80 80" version="1.1" xmlns="http://www.w3.org/2000/svg" xmlns:xlink="http://www.w3.org/1999/xlink">
    <!-- Generator: Sketch 52.5 (67469) - http://www.bohemiancoding.com/sketch -->
    <title>home_icon_encryption</title>
    <desc>Created with Sketch.</desc>
    <defs>
        <polygon id="path-1" points="0.00883977901 0.0398043053 61.0146593 0.0398043053 61.0146593 72.3739569 0.00883977901 72.3739569"></polygon>
    </defs>
    <g id="home_icon_encryption" stroke="none" stroke-width="1" fill="none" fill-rule="evenodd">
        <g>
            <rect id="矩形" fill="#000000" opacity="0" x="0" y="0" width="80" height="80"></rect>
            <g id="分组" transform="translate(1.333333, 4.000000)">
                <mask id="mask-2" fill="white">
                    <use xlink:href="#path-1"></use>
                </mask>
                <g id="Clip-2"></g>
                <path d="M49.0867885,58.2465156 C49.4403413,58.9712216 49.8266173,59.6791682 50.2442815,60.368121 L30.1744383,72.3739569 L3.12638804e-13,53.9252511 L3.12638804e-13,17.5100613 L30.1744383,0.0398043053 L61.0146593,17.5100613 L61.0146593,35.0607924 C60.8854287,34.9466582 60.7578391,34.8303479 60.6318969,34.7118604 C60.0382003,35.3875426 59.3606196,35.9901396 58.6009576,36.5207379 L58.6009576,19.1380574 L31.466372,35.3701057 L31.466372,68.7868519 L49.0867885,58.2465156 Z M29.0526703,68.8571729 L29.0526703,35.4570855 L2.41370166,19.169606 L2.41370166,52.5696934 L29.0526703,68.8565832 L29.0526703,68.8571729 Z M58.6009576,18.918544 L56.3737753,17.6563053 L58.6003683,18.918544 L58.6009576,18.918544 Z M30.1875506,2.82300978 L4.56780847,17.6563053 L30.18814,33.3206262 L56.3737753,17.656895 L30.1875506,2.82300978 Z" id="合并形状" fill="#5068D0" mask="url(#mask-2)"></path>
            </g>
            <path d="M47.7370166,43.5100483 L47.7370166,50.623225 C47.7370166,60.3814716 53.0961326,69.3499713 61.6866298,73.9680078 C70.7527072,69.3378826 76.4581952,60.0129132 76.4581952,49.8280235 L76.4581952,43.5688702 C70.4032413,43.6713294 65.5258932,42.0617613 61.9652302,38.7118604 C59.1037937,41.9684423 54.2937753,43.5272968 47.7370166,43.5100483 Z M61.6590792,34.6876451 C65.1547698,39.6384162 70.8919337,41.7484866 78.8724862,41.0182988 L78.8724862,49.8280235 C78.8724862,61.3718617 72.1476243,71.856758 61.6590792,76.6642335 C51.6711602,71.8400992 45.3233149,61.7214025 45.3233149,50.623225 L45.3233149,41.0182988 C54.2177532,41.5412094 59.6626151,39.4305492 61.6590792,34.6876451 Z" id="Fill-4" fill="#5068D0"></path>
            <polyline id="路径-2" stroke="#5068D0" stroke-width="2" stroke-linecap="round" stroke-linejoin="round" points="55.9051684 57.3431509 61.4965118 62.6668428 70 50.833795"></polyline>
        </g>
    </g>
</svg>