<?xml version="1.0" encoding="UTF-8"?>
<svg width="80px" height="80px" viewBox="0 0 80 80" version="1.1" xmlns="http://www.w3.org/2000/svg" xmlns:xlink="http://www.w3.org/1999/xlink">
    <!-- Generator: Sketch 52.5 (67469) - http://www.bohemiancoding.com/sketch -->
    <title>home_icon_global</title>
    <desc>Created with Sketch.</desc>
    <defs>
        <polygon id="path-1" points="0 0.0780054883 79.9293196 0.0780054883 79.9293196 74.990439 0 74.990439"></polygon>
    </defs>
    <g id="home_icon_global" stroke="none" stroke-width="1" fill="none" fill-rule="evenodd">
        <g>
            <path d="M43.3066017,24.5476098 C42.1623386,23.2754146 40.4107186,22.7385366 38.7515713,23.1516098 C37.0923264,23.5646829 35.7955664,24.8604878 35.3798782,26.5204878 C34.9638002,28.1809756 35.4963216,29.9359024 36.7646285,31.0841951 C37.6232887,31.9690732 38.8029233,32.4682927 40.0353715,32.4682927 C41.2679172,32.4682927 42.4478441,31.9690732 43.3066017,31.0841951 C44.1896224,30.2266341 44.6878441,29.0476098 44.6878441,27.8159024 C44.6878441,26.5841951 44.1896224,25.4050732 43.3066017,24.5476098 Z M42.4288429,30.272 C41.1057734,31.5921951 38.965067,31.5921951 37.6419976,30.272 C37.0128136,29.6321951 36.6553959,28.773561 36.6446772,27.8757073 C36.653447,26.9812683 37.0112546,26.1260488 37.6419976,25.4926829 C38.2704019,24.8451707 39.1336419,24.4797073 40.0353715,24.4797073 C40.9371011,24.4797073 41.8004385,24.8451707 42.4288429,25.4926829 C43.0594884,26.1260488 43.4176857,26.9812683 43.4260658,27.8757073 C43.4154446,28.773561 43.0580268,29.6321951 42.4288429,30.272 Z" id="Fill-1" fill="#5068D0"></path>
            <path d="M42.4288429,25.4926829 C41.8004385,24.8451707 40.9371011,24.4797073 40.0353715,24.4797073 C39.1336419,24.4797073 38.2704019,24.8451707 37.6419976,25.4926829 C37.0112546,26.1260488 36.653447,26.9812683 36.6446772,27.8757073 C36.6553959,28.773561 37.0128136,29.6321951 37.6419976,30.272 C38.965067,31.5921951 41.1057734,31.5921951 42.4288429,30.272 C43.0580268,29.6321951 43.4154446,28.773561 43.4260658,27.8757073 C43.4176857,26.9812683 43.0594884,26.1260488 42.4288429,25.4926829 Z" id="Fill-2" fill="#5068D0"></path>
            <path d="M33.5067479,35.0514146 C33.3400244,35.0578537 33.1790499,34.9896585 33.0678685,34.8649756 C31.2020463,33.0204878 30.1571742,30.5010732 30.1693544,27.8757073 C30.1469428,25.2521951 31.1936663,22.7331707 33.0678685,20.8997073 C33.2171498,20.7099512 33.461827,20.6230244 33.6966626,20.6763902 C33.9319854,20.7293659 34.1153715,20.9130732 34.1686724,21.1485854 C34.2215834,21.3840976 34.1348599,21.6290732 33.9456273,21.7781463 C30.5914738,25.1496585 30.5914738,30.6016585 33.9456273,33.972878 C34.064799,34.0906341 34.1321315,34.2514146 34.1321315,34.419122 C34.1321315,34.5868293 34.064799,34.7472195 33.9456273,34.8649756 C33.8242144,34.974439 33.6696711,35.0399024 33.5067479,35.0514146 Z M46.5639951,35.0514146 C46.3984409,35.052878 46.2393179,34.9850732 46.1255055,34.8649756 C46.0060414,34.7472195 45.9386114,34.5868293 45.9386114,34.419122 C45.9386114,34.2514146 46.0060414,34.0906341 46.1255055,33.972878 C47.7526918,32.3623415 48.6685505,30.166439 48.6685505,27.8757073 C48.6685505,25.5844878 47.7526918,23.3890732 46.1255055,21.7781463 C45.9359805,21.6290732 45.8491596,21.3840976 45.9020706,21.1485854 C45.9553715,20.9130732 46.1388551,20.7293659 46.3740804,20.6763902 C46.6093057,20.6230244 46.8540804,20.7099512 47.0028745,20.8997073 C48.8668453,22.74 49.9117174,25.2545366 49.9017783,27.8757073 C49.9276979,30.5037073 48.8805847,33.0280976 47.0028745,34.8649756 C46.8898417,34.9866341 46.7303289,35.054439 46.5639951,35.0514146 Z" id="Fill-3" fill="#5068D0"></path>
            <g id="分组">
                <mask id="mask-2" fill="white">
                    <use xlink:href="#path-1"></use>
                </mask>
                <g id="Clip-5"></g>
                <path d="M29.5443605,39.0052683 C29.3768575,39.0159024 29.214324,38.9469268 29.1054811,38.8189268 C26.1883557,35.9294634 24.5584409,31.9839024 24.5847503,27.8757073 C24.5763703,23.7709268 26.2035566,19.8319024 29.1054811,16.9324878 C29.354056,16.7361951 29.7099147,16.757561 29.9337393,16.9816585 C30.1575639,17.2057561 30.1789038,17.5620488 29.98324,17.8109268 C27.3149817,20.4778537 25.8213886,24.100878 25.8343484,27.8757073 C25.8487698,31.6447805 27.3382704,35.2579512 29.98324,37.9400976 C30.1050426,38.0536585 30.1747138,38.2129756 30.1747138,38.3795122 C30.1747138,38.546439 30.1050426,38.7057561 29.98324,38.8189268 C29.8664068,38.9355122 29.7092326,39.0022439 29.5443605,39.0052683 Z M50.5263825,39.0052683 C50.3592692,39.0159024 50.1964434,38.9469268 50.0878928,38.8189268 C49.9657004,38.7057561 49.8961267,38.546439 49.8961267,38.3795122 C49.8961267,38.2129756 49.9657004,38.0536585 50.0878928,37.9400976 C55.618514,32.3729756 55.618514,23.3783415 50.0878928,17.8109268 C49.8919367,17.5620488 49.913179,17.2057561 50.1370037,16.9816585 C50.3608283,16.757561 50.716687,16.7361951 50.9652619,16.9324878 C53.8657247,19.8337561 55.4952497,23.7705366 55.4952497,27.8757073 C55.4952497,31.9804878 53.8657247,35.9172683 50.9652619,38.8189268 C50.8568088,38.9469268 50.6938855,39.0159024 50.5263825,39.0052683 Z M28.5337881,74.9503415 C28.3518636,74.9542439 28.1755907,74.8875122 28.0416078,74.764 C27.9225335,74.6462439 27.8551035,74.4858537 27.8551035,74.3181463 C27.8551035,74.150439 27.9225335,73.9896585 28.0416078,73.8719024 L47.7078685,56.8315122 C47.8315225,56.7209756 47.9952253,56.6656585 48.1603898,56.6782439 C48.325944,56.6908293 48.4794153,56.7701463 48.5851401,56.8977561 C48.703922,57.0132683 48.7709622,57.1718049 48.7709622,57.3371707 C48.7709622,57.5030244 48.703922,57.6611707 48.5851401,57.7765854 L28.9193666,74.8569756 C28.8078928,74.940878 28.6731303,74.9873171 28.5337881,74.990439 L28.5337881,74.9503415 Z" id="Fill-4" fill="#5068D0" mask="url(#mask-2)"></path>
                <path d="M62.4006821,55.2339512 L47.5084044,55.2339512 C46.916151,55.2171707 46.4060414,54.8097561 46.2584166,54.2354146 L43.0538368,39.4446829 L36.8974421,39.4446829 L33.7595128,54.2354146 C33.60419,54.8387317 33.0514982,55.2533659 32.4296224,55.2339512 L17.6701583,55.2339512 C8.16341048,55.2118049 0.36998782,47.6786341 0.0125700365,38.1672195 C-0.344457978,28.6554146 6.86246041,20.5578537 16.3405603,19.8211707 C16.8502801,8.81014634 25.888039,0.130243902 36.8974421,0.0780487805 C41.510743,0.0684878049 45.9881121,1.64282927 49.5824604,4.53804878 C55.5621924,1.46712195 62.7112302,1.75492683 68.425335,5.29678049 C74.1393423,8.83834146 77.5845067,15.1165854 77.505676,21.8447805 C77.514056,23.6946341 77.26324,25.5364878 76.761218,27.3165854 C80.5069915,32.7285854 80.9656516,39.7678049 77.9533252,45.6210732 C74.9413886,51.474439 68.949866,55.1866341 62.3739829,55.2739512 L62.4006821,55.2339512 Z M48.5189769,52.717561 L62.3340317,52.717561 C70.6703045,52.6516098 77.3831912,45.8475122 77.3462607,37.5010732 C77.3389525,34.1981463 76.2869671,30.9820488 74.3411449,28.315122 C74.091011,27.9942439 74.0164677,27.570439 74.1416809,27.1832195 C74.702363,25.4644878 74.9809501,23.6660488 74.9661389,21.8581463 C75.0334714,15.8577561 71.8891108,10.2796098 66.7238977,7.23619512 C61.5586845,4.19278049 55.1614129,4.14858537 49.9546894,7.12078049 C49.4941778,7.36653659 48.9323264,7.31970732 48.5189769,7.00068293 C45.2592448,4.16156098 41.0848234,2.59668293 36.7646285,2.59443902 C26.748648,2.68204878 18.6940804,10.8715122 18.7606334,20.8997073 L18.7606334,21.0193171 C18.7602436,21.3505366 18.6258709,21.6676098 18.3884044,21.8981463 C18.1596102,22.1398049 17.843313,22.2789268 17.5106456,22.2841951 C9.11688185,22.3357073 2.35420219,29.1900488 2.40565164,37.5940488 C2.45700365,45.9980488 9.30309379,52.7689756 17.69676,52.717561 L31.4856029,52.717561 L34.7167844,37.9400976 C34.8610962,37.3559024 35.3787089,36.940878 35.979732,36.9282927 L44.143922,36.9282927 C44.7700853,36.9103415 45.3239464,37.3315122 45.4739099,37.9400976 L48.5189769,52.717561 Z M52.0025335,73.8585366 L32.3100609,56.8047805 C32.0493057,56.576878 31.6534957,56.6036098 31.4258709,56.8646829 C31.198246,57.1256585 31.2248477,57.5220488 31.4856029,57.7499512 L51.0852132,74.8569756 C51.2252375,74.9317073 51.3790012,74.9770732 51.5369549,74.990439 C51.7231669,74.990439 51.8430207,74.8569756 52.0291352,74.7373659 C52.1445067,74.618439 52.2065773,74.4580488 52.2016078,74.2921951 C52.1966382,74.1268293 52.1247259,73.9702439 52.0025335,73.8585366 Z" id="Fill-6" fill="#5068D0" mask="url(#mask-2)"></path>
            </g>
            <path d="M47.5745676,53.8493659 L45.872838,52.2785366 L40.979391,47.7518049 L44.2505238,44.7430244 L45.5801218,43.544878 C45.6995859,43.4275122 45.7670158,43.2667317 45.7670158,43.0990244 C45.7670158,42.9313171 45.6995859,42.7705366 45.5801218,42.6531707 C45.4715713,42.5228293 45.3109866,42.4477073 45.1412424,42.4477073 C44.9717905,42.4477073 44.8112058,42.5228293 44.7027527,42.6531707 L43.9048965,43.3851707 L40.0353715,46.9130732 L36.1129354,43.2921951 L35.3551279,42.5998049 C35.1899635,42.4294634 34.94324,42.3669268 34.7171742,42.4385366 C34.4914982,42.5102439 34.3255542,42.7038049 34.2886236,42.9381463 C34.2520828,43.1725854 34.3505968,43.4077073 34.5440195,43.544878 L35.8069671,44.7034146 L39.1180512,47.7651707 L34.1846529,52.3447805 L32.5628258,53.8493659 C32.4341048,53.9576585 32.354592,54.1134634 32.3420219,54.2811707 C32.3294519,54.4492683 32.3850914,54.6150244 32.4961754,54.7411707 C32.6103776,54.861561 32.7691108,54.9290732 32.9350548,54.9275122 C33.0720585,54.9137561 33.20419,54.8680976 33.3206334,54.7945366 L34.9429476,53.3299512 L40.0353715,48.604 L45.1412424,53.3299512 L46.6839464,54.7411707 C46.8026309,54.8543415 46.9587333,54.9206829 47.1228258,54.9275122 C47.3059196,54.9176585 47.4817052,54.8524878 47.6278685,54.7411707 C47.8299635,54.4705366 47.8075518,54.0936585 47.5745676,53.8493659 Z" id="Fill-7" fill="#5068D0"></path>
            <path d="M48.7580024,53.3299512 L45.5400731,38.3395122 L45.4339586,37.8737561 C45.2858465,37.299122 44.7762241,36.8920976 44.1839708,36.8753171 L36.0463825,36.8753171 C35.4491596,36.8859512 34.9326188,37.2945366 34.7830451,37.8737561 L34.6901827,38.3395122 L31.4323021,53.3299512 L26.0204629,78.3851707 C25.9062607,78.7198049 25.9455298,79.0876098 26.1274543,79.3905366 C26.3097686,79.693561 26.6161267,79.9004878 26.9648721,79.9560976 C27.2914007,80.0434146 27.6400487,79.9915122 27.9274056,79.8123902 C28.2144702,79.6332683 28.4146163,79.3433171 28.4804872,79.0110244 L36.950743,39.4713171 L43.1203898,39.4713171 L46.0855542,53.3299512 L51.5902558,78.9709268 C51.7402192,79.5796098 52.2940804,80.0010732 52.9198538,79.9827317 C53.0431181,80.0056585 53.1691108,80.0056585 53.2924726,79.9827317 C53.9441657,79.7957073 54.3505968,79.1474146 54.2364921,78.4782439 L48.7580024,53.3299512 Z" id="Fill-8" fill="#5068D0"></path>
        </g>
    </g>
</svg>