<?xml version="1.0" encoding="UTF-8"?>
<svg width="80px" height="80px" viewBox="0 0 80 80" version="1.1" xmlns="http://www.w3.org/2000/svg" xmlns:xlink="http://www.w3.org/1999/xlink">
    <!-- Generator: Sketch 52.5 (67469) - http://www.bohemiancoding.com/sketch -->
    <title>home_icon_area</title>
    <desc>Created with Sketch.</desc>
    <g id="home_icon_area" stroke="none" stroke-width="1" fill="none" fill-rule="evenodd">
        <g>
            <rect id="矩形" fill="#000000" opacity="0" x="0" y="0" width="80" height="80"></rect>
            <path d="M46.4558362,23.167862 C46.4558362,19.5975748 43.5595835,16.6922396 40.000011,16.6922396 C36.4405267,16.6922396 33.5441858,19.5975748 33.5441858,23.167862 C33.5441858,26.7369981 36.4405267,29.6408281 40.000011,29.6408281 C43.5595835,29.6408281 46.4558362,26.7369096 46.4558362,23.167862 Z M36.1265689,23.167862 C36.1265689,21.0251407 37.8641086,19.2820104 40.0000111,19.2820104 C42.1360018,19.2820104 43.8735415,21.0251407 43.8735415,23.167862 C43.8735415,25.3093436 42.1360018,27.0511458 40.0000111,27.0511458 C37.8640202,27.0511459 36.1265689,25.3092551 36.1265689,23.167862 Z M39.9684916,61.4704212 L40.970932,60.2426065 C41.6719515,59.3840128 58.1331093,39.071635 58.0763391,25.7802996 C58.0321943,15.0578391 49.9233226,6.33333333 40.000011,6.33333333 C30.0325546,6.33333333 21.9236829,15.059787 21.9236829,25.7865862 C21.9236829,39.0715465 38.2750967,59.380117 38.9710837,60.2387107 L39.9684916,61.4704212 Z M40.000011,8.92310417 C48.5048616,8.92310417 55.454932,16.490629 55.4940443,25.7923414 C55.5394251,36.3554259 43.5632917,52.6757901 39.9760845,57.3266463 C36.4063587,52.6706547 24.5059777,36.35215 24.5059777,25.7865863 C24.506066,16.4880612 31.4561364,8.92310417 40.000011,8.92310417 Z M78.0238773,66.0340633 L68.050064,47.8466099 C67.1472144,46.2014958 65.4236245,45.1784792 63.5511782,45.1784792 L54.2028086,45.1784792 C53.4891637,45.1784792 52.9116613,45.7582535 52.9116613,46.4746484 C52.9116613,47.1890069 53.4891637,47.7694896 54.2028086,47.7694896 L63.5511782,47.7694896 C64.4817508,47.7694896 65.3391313,48.2778104 65.788084,49.0947007 L75.761809,67.2821542 C76.2006084,68.0839038 76.1867469,69.0322793 75.722785,69.8187112 C75.2587348,70.6064711 74.4366702,71.0768958 73.5249915,71.0768958 L6.47511875,71.0768958 C5.56344014,71.0768958 4.74137551,70.6064711 4.27732531,69.8187112 C3.81336338,69.0321908 3.79941365,68.0838152 4.23821298,67.2821542 L14.2119379,49.0947007 C14.6608024,48.2778104 15.5182712,47.7694896 16.4487555,47.7694896 L25.797125,47.7694896 C26.51077,47.7694896 27.0882724,47.1890069 27.0882724,46.4746484 C27.0882724,45.7582535 26.5108583,45.1784792 25.797125,45.1784792 L16.4488437,45.1784792 C14.5763975,45.1784792 12.8527193,46.2014958 11.9498697,47.8466099 L1.97623304,66.0340633 C1.09227736,67.6450001 1.12132466,69.5531731 2.05436935,71.1363962 C2.98741404,72.7208589 4.64054882,73.6666667 6.47511884,73.6666667 L73.5249916,73.6666667 C75.3595616,73.6666667 77.0126081,72.7207703 77.9456528,71.1363962 C78.8786974,69.5532616 78.9076563,67.6450887 78.0238773,66.0340633 Z" id="形状" fill="#5068D0" fill-rule="nonzero"></path>
        </g>
    </g>
</svg>