<?xml version="1.0" encoding="UTF-8"?>
<svg width="80px" height="80px" viewBox="0 0 80 80" version="1.1" xmlns="http://www.w3.org/2000/svg" xmlns:xlink="http://www.w3.org/1999/xlink">
    <!-- Generator: Sketch 52.5 (67469) - http://www.bohemiancoding.com/sketch -->
    <title>home_icon_develop</title>
    <desc>Created with Sketch.</desc>
    <g id="home_icon_develop" stroke="none" stroke-width="1" fill="none" fill-rule="evenodd">
        <g>
            <rect id="矩形" fill="#000000" opacity="0" x="0" y="0" width="80" height="80"></rect>
            <path d="M6.51863006,14.5439156 C7.14924036,14.5439156 7.66045101,14.0327049 7.66045101,13.4020946 C7.66045101,12.7714843 7.14924036,12.2602737 6.51863006,12.2602737 C5.88801976,12.2602737 5.37680911,12.7714843 5.37680911,13.4020946 C5.37680911,14.0327049 5.88801976,14.5439156 6.51863006,14.5439156 Z M15.4182092,13.4020066 C15.4181104,13.8101818 15.6357187,14.1872308 15.9890399,14.3912589 C16.342361,14.595287 16.7776992,14.595287 17.1310204,14.3912589 C17.4843416,14.1872308 17.7019498,13.8101818 17.701851,13.4020066 C17.7019498,12.9940074 17.4843416,12.6169584 17.1310204,12.4129303 C16.7776992,12.2089022 16.342361,12.2089022 15.9890399,12.4129303 C15.6357187,12.6169584 15.4181104,12.9940074 15.4182092,13.4020066 Z M10.4050365,13.4020066 C10.4049377,13.8101818 10.6225459,14.1872308 10.9758671,14.3912589 C11.3291883,14.595287 11.7645264,14.595287 12.1178476,14.3912589 C12.4711688,14.1872308 12.688777,13.8101818 12.6886783,13.4020066 C12.688777,12.9940074 12.4711688,12.6169584 12.1178476,12.4129303 C11.7645264,12.2089022 11.3291883,12.2089022 10.9758671,12.4129303 C10.6225459,12.6169584 10.4049377,12.9940074 10.4050365,13.4020066 Z M22.069297,35.2445826 L26.8411014,30.4727782 C27.1311099,30.1827697 27.2443711,29.7600731 27.1382207,29.363914 C27.0320702,28.967755 26.7226348,28.6583196 26.3264757,28.5521691 C25.9303167,28.4460186 25.5076201,28.5592798 25.2179564,28.848943 L19.6180743,34.4638779 C19.1753634,34.9092309 19.1753634,35.6284925 19.6176554,36.0734247 L25.2186636,41.6894913 C25.4330594,41.9056525 25.7249041,42.02724 26.0293564,42.02724 C26.3338087,42.02724 26.6256534,41.9056525 26.8403375,41.6892011 C27.2830484,41.2438481 27.2830484,40.5245865 26.8394042,40.0782912 L22.069297,35.2445826 Z M46.0073134,41.6565967 L51.6201644,36.1190092 C52.0628753,35.6736562 52.0628753,34.9543946 51.6209283,34.5098078 L46.0064828,28.8953591 C45.5586693,28.4506993 44.8351768,28.4532558 44.390517,28.9010693 C43.9458572,29.3488827 43.9484137,30.0723752 44.3971373,30.517942 L49.1706389,35.2914436 L48.9135091,35.5485733 L44.3996959,40.0623609 C43.9650497,40.5057887 43.9644997,41.2151225 44.3980458,41.6592233 C44.8435259,42.1002722 45.5615449,42.099717 46.0073134,41.6565967 Z M38.9749121,29.3969374 L38.9596086,29.3885557 C38.6963918,29.2360712 38.3832102,29.1949215 38.0895369,29.2742347 C37.7958635,29.353548 37.5459786,29.5467668 37.3954074,29.8108655 L31.831154,39.5813693 C31.6061475,39.9353213 31.5933039,40.3841402 31.7977011,40.7503802 C32.0020983,41.1166202 32.3908307,41.341321 32.8102085,41.3356446 C33.2295863,41.3299681 33.6120945,41.0948283 33.8139271,40.7097036 L39.4316404,30.9954867 C39.5926727,30.7250791 39.6349518,30.400195 39.5484902,30.0975795 C39.4620286,29.794964 39.2544945,29.5414552 38.9749121,29.3969374 Z M75.8211793,49.7676654 C75.2360091,48.2283416 74.4067629,46.7932988 73.3479298,45.4945764 C73.1583967,45.2206325 73.1583967,44.8579263 73.3319983,44.6091537 C74.1864568,43.128179 73.6799985,41.2349899 72.1952968,40.3755587 L70.8896569,39.5921747 L70.8896569,11.8966374 C70.8896569,9.60314492 69.0304139,7.74390191 66.7369214,7.74390191 L4.51637185,7.74390191 C2.22287937,7.74390191 0.363636364,9.60314492 0.363636364,11.8966374 L0.363633057,50.0433742 C0.371028536,51.7775869 1.77505355,53.1816118 3.50771553,53.189004 L24.56228,53.189004 L22.8602625,59.4864687 L22.5818592,59.4864687 L20.5798484,59.4864686 C17.7296859,59.4884068 15.2536675,61.4468727 14.5954319,64.2199857 L14.5290518,64.4996414 L14.2416259,64.4996414 L10.538289,64.4996414 C9.90778668,64.499794 9.39674447,65.01096 9.39674447,65.6414623 C9.39674447,66.2719647 9.90778668,66.7831306 10.538201,66.7832832 L49.2725343,66.7832832 L49.2449235,67.1726417 C49.222323,67.4913468 49.253895,67.8115773 49.33989,68.1257438 C49.5434838,68.9222763 50.0626523,69.6015622 50.7804378,70.0086319 L53.9559752,71.8447266 C54.6688508,72.2539648 55.5151113,72.363212 56.3085444,72.1484292 C57.1019774,71.9336463 57.7775716,71.4124322 58.1951191,70.6854856 C58.3724852,70.4062466 58.6986845,70.2589308 59.0307368,70.3113734 C60.6434867,70.5903174 62.292155,70.5903174 63.9086992,70.3107378 C64.2473089,70.2558543 64.5840533,70.4187951 64.7475758,70.7121157 C65.306522,71.6691414 66.3340096,72.2548094 67.448008,72.2481102 C67.9903831,72.2533632 68.5243706,72.1140621 68.9937436,71.8452898 L72.1705537,70.0084614 C72.8830988,69.5973596 73.4018591,68.9186078 73.6124002,68.1197236 C73.8287093,67.330065 73.7172075,66.4865302 73.317244,65.8023593 C73.1258689,65.5240954 73.1258689,65.1566464 73.335111,64.8545555 C74.3735627,63.5818301 75.2027391,62.1518733 75.7866168,60.6318975 C75.8963085,60.308576 76.2023686,60.0932004 76.5358775,60.0990563 C78.2451628,60.0916726 79.6289834,58.7078521 79.6363636,57.0001375 L79.6364184,53.3331326 C79.6072594,51.6532184 78.2446994,50.302557 76.5646143,50.2881128 C76.231386,50.2854983 75.9346512,50.0766473 75.8211793,49.7676654 Z M2.64727826,11.8966374 C2.64727826,10.8643655 3.48409993,10.0275438 4.51637185,10.0275437 L66.7369214,10.0275437 C67.7691933,10.0275438 68.606015,10.8643655 68.606015,11.8966374 L68.606015,16.7766456 L2.64727826,16.7766456 L2.64727826,11.8966374 Z M3.50811733,50.9053619 C3.03250915,50.9053622 2.64727826,50.5201313 2.64727826,50.0449249 L2.64727826,19.0602874 L68.606015,19.0602874 L68.606015,38.3536501 L68.1490372,38.2322824 C66.8408838,37.884853 65.4590807,38.4310203 64.7410818,39.5803723 C64.5652732,39.8589249 64.2367368,40.0012908 63.9231579,39.9408515 C62.3070699,39.6761531 60.658681,39.6761531 59.0612388,39.9372955 C58.7316281,40.0091204 58.3929772,39.8623717 58.2166686,39.5670759 C57.8080885,38.8540255 57.1317993,38.3335511 56.3379018,38.1211709 C55.5440043,37.9087907 54.6981749,38.022074 53.9870618,38.4365058 L50.8068209,40.2752888 C50.0938969,40.6763551 49.5750122,41.3504203 49.3686441,42.1461415 C49.1529678,42.941276 49.2595876,43.7893879 49.6367242,44.4632748 C49.8507688,44.740517 49.8507688,45.1272779 49.6305707,45.4122701 C48.5890971,46.6879168 47.7598509,48.1229596 47.1761131,49.6584506 C47.0611902,49.971316 46.7643766,50.1801848 46.428822,50.1827423 C45.769237,50.1836845 45.127331,50.3960799 44.5973589,50.7887411 L44.5010925,50.8600658 L3.50811733,50.9053619 Z M43.9434993,58.8972871 L44.4093806,59.4864687 L25.1178104,59.4864687 L26.8198278,53.189004 L43.2691689,53.189004 L43.2691689,53.5526403 L43.2691405,56.9955955 C43.2777719,57.6865661 43.5148918,58.3552442 43.9434993,58.8972871 Z M47.6173852,61.7701105 L47.7175894,61.9722241 C48.0541374,62.6510472 48.4379037,63.3054181 48.866061,63.9305154 L49.2558809,64.4996414 L16.8427504,64.4996414 L17.089698,63.9799386 C17.7298996,62.6326302 19.0872257,61.7729903 20.5796011,61.7701105 L47.6173852,61.7701105 Z M71.3431541,43.3755877 C70.7084004,44.4857592 70.8207843,45.8718267 71.6265644,46.8658117 C72.5062299,47.9554678 73.2065433,49.1784032 73.7034385,50.4948445 C74.1386672,51.7151717 75.2809566,52.5410523 76.5547941,52.5719906 C76.7766406,52.5641992 76.9917554,52.6489103 77.1487212,52.8058762 C77.3056871,52.9628421 77.3903983,53.1779568 77.3828309,53.3870401 L77.3828309,57.0001375 C77.3828309,57.4504007 77.0178205,57.8154111 76.5684609,57.81541 C75.2832151,57.8186032 74.1319729,58.6110863 73.6708441,59.8087619 C73.1758912,61.1142722 72.4754158,62.3322629 71.5961401,63.4163735 C70.7880709,64.4145247 70.6756522,65.8063742 71.3268541,66.9479097 C71.4156311,67.1380414 71.4210421,67.355929 71.3430869,67.5494441 C71.2873114,67.7545306 71.1519651,67.9296334 70.9660322,68.0352781 L67.832011,69.8132175 C67.6413361,69.9192763 67.4161055,69.9444806 67.2067037,69.8831923 C66.9973018,69.8219039 66.8212042,69.6792377 66.7243708,69.4987892 C66.0719075,68.3866835 64.8015515,67.7917067 63.5311442,68.0021929 C62.1654322,68.2348397 60.7702095,68.2348397 59.4069615,68.0026039 C58.1319264,67.7944064 56.8607582,68.3951273 56.2067763,69.5212989 C55.9759196,69.8940474 55.4950352,70.0230652 55.0983729,69.8102355 L51.9242355,67.9749404 C51.7384887,67.8694014 51.6031484,67.6942893 51.5473802,67.4891861 C51.469484,67.2955929 51.4756299,67.0763002 51.5763738,66.8629096 C52.2067239,65.745189 52.0945655,64.3565611 51.2958408,63.3579994 C50.4081098,62.2759999 49.701875,61.0570911 49.20654,59.7536013 C48.7446582,58.5880743 47.6202468,57.8207035 46.3680843,57.8154111 C45.9178212,57.8154111 45.5528108,57.4504007 45.5528108,57.0001375 L45.5530349,53.339585 C45.5452435,53.1177385 45.6299546,52.9026238 45.7869205,52.7456579 C45.9438864,52.588692 46.1590011,52.5039809 46.3666825,52.5115509 C47.6475401,52.506613 48.7933736,51.7141674 49.249487,50.5188747 C49.7433815,49.2082904 50.4502751,47.9882444 51.3381656,46.9122459 C52.1397292,45.9101799 52.2518876,44.5215521 51.6067256,43.374554 C51.5197134,43.1813915 51.5146638,42.9618163 51.5915768,42.7655881 C51.6474489,42.5549628 51.7908555,42.3786292 51.9670218,42.2931634 L55.1435366,40.4565054 L55.2281525,40.4209594 C55.3504672,40.386954 55.4789675,40.3831768 55.6026562,40.4096278 C55.8608859,40.427719 56.0967001,40.5682155 56.2416752,40.798565 C56.8933641,41.9134502 58.163021,42.5134568 59.4346066,42.3097118 C60.8003186,42.0770649 62.1955413,42.0770649 63.5488534,42.3078189 C64.8330033,42.4812359 66.0920157,41.849051 66.7252005,40.7063265 C66.834174,40.5224812 67.0121598,40.3898653 67.2194942,40.3380317 C67.4268287,40.2861981 67.6462824,40.3194541 67.8222143,40.4263963 L70.9767736,42.251343 C71.1736484,42.3478546 71.3182387,42.5248256 71.3741747,42.7354947 C71.4510334,42.9318193 71.4451147,43.1530934 71.3431541,43.3755877 Z M54.9966811,55.1634797 C54.9966811,58.7373915 57.893909,61.6346194 61.4678208,61.6346194 C65.0417326,61.6346194 67.9389606,58.7373915 67.9389606,55.1634797 C67.9389606,51.5895679 65.0417326,48.69234 61.4678208,48.69234 C57.893909,48.69234 54.9966811,51.5895679 54.9966811,55.1634797 Z M61.8314572,59.3509775 L61.4678208,59.3509775 C59.1551296,59.3509775 57.280323,57.4761708 57.2803231,55.1634796 C57.2803231,52.8507884 59.1551298,50.9759818 61.4678209,50.9759819 C63.7805121,50.9759819 65.6553187,52.8507885 65.6553075,55.166343 C65.6381629,57.3436425 63.9616005,59.1220768 61.8314572,59.3053038 L61.8314572,59.3509775 Z" id="合并形状" fill="#5068D0" fill-rule="nonzero"></path>
        </g>
    </g>
</svg>