<?xml version="1.0" encoding="UTF-8"?>
<svg width="58px" height="58px" viewBox="0 0 58 58" version="1.1" xmlns="http://www.w3.org/2000/svg" xmlns:xlink="http://www.w3.org/1999/xlink">
    <!-- Generator: Sketch 52.5 (67469) - http://www.bohemiancoding.com/sketch -->
    <title>home_icon_smart</title>
    <desc>Created with Sketch.</desc>
    <defs>
        <linearGradient x1="-19.9949753%" y1="-15.5823677%" x2="107.957449%" y2="100%" id="linearGradient-1">
            <stop stop-color="#497BCE" offset="0%"></stop>
            <stop stop-color="#30C7C9" offset="100%"></stop>
        </linearGradient>
    </defs>
    <g id="home_icon_smart" stroke="none" stroke-width="1" fill="none" fill-rule="evenodd">
        <rect id="矩形备份-5" fill="url(#linearGradient-1)" x="0" y="0" width="58" height="58" rx="18"></rect>
        <path d="M29,47 C19.0588745,47 11,38.9411255 11,29 C11,19.0588745 19.0588745,11 29,11 C38.9411255,11 47,19.0588745 47,29 C47,38.9411255 38.9411255,47 29,47 Z M24.1312854,30.3884337 L25.8673428,26.8086822 L28.1869789,35.0779028 C28.4322876,35.9523984 29.62227,36.0733982 30.038579,35.2661773 L33.7079696,28.1512486 L35.8531701,30.5967061 C36.0430417,30.8131533 36.3169951,30.9372574 36.6049197,30.9372574 L40.7345133,30.9372574 C41.2867981,30.9372574 41.7345133,30.4895421 41.7345133,29.9372574 C41.7345133,29.3849726 41.2867981,28.9372574 40.7345133,28.9372574 L37.0579314,28.9372574 L34.2436543,25.7290748 C33.778792,25.1991473 32.9262522,25.3036468 32.6031399,25.9301598 L29.4261299,32.0903653 L27.0809012,23.7299108 C26.8323358,22.8438053 25.6198782,22.7355726 25.2182933,23.563641 L22.605948,28.9502989 L18.0028323,28.9372614 C17.4505498,28.9356972 17.0015682,29.3821426 17.000004,29.9344251 C16.9984398,30.4867076 17.4448852,30.9356892 17.9971677,30.9372534 L23.2286804,30.9520707 C23.6128356,30.9531587 23.9636551,30.7340874 24.1312854,30.3884337 Z" id="合并形状" fill="#FFFFFF"></path>
    </g>
</svg>