<?xml version="1.0" encoding="UTF-8"?>
<svg width="50px" height="50px" viewBox="0 0 50 50" version="1.1" xmlns="http://www.w3.org/2000/svg" xmlns:xlink="http://www.w3.org/1999/xlink">
    <!-- Generator: Sketch 52.5 (67469) - http://www.bohemiancoding.com/sketch -->
    <title>home_icon_smart</title>
    <desc>Created with Sketch.</desc>
    <g id="home_icon_smart" stroke="none" stroke-width="1" fill="none" fill-rule="evenodd">
        <g>
            <rect id="矩形" fill="#000000" opacity="0" x="0" y="0" width="50" height="50"></rect>
            <path d="M43.2881562,24.999943 C43.5223378,24.6910142 43.7483775,24.3814004 43.9635991,24.0711016 C47.0625056,19.6032218 47.819653,15.4938181 46.0954888,12.4999144 C44.3713814,9.50601078 40.4433592,8.10875301 35.0340655,8.56529634 C34.6584526,8.59703403 34.278,8.63841861 33.8940742,8.68733808 C33.7443301,8.32954695 33.5898601,7.97843438 33.4294688,7.63651209 C31.1194234,2.7120318 27.9482069,0 24.4999352,0 C21.0516636,0 17.8804471,2.7120318 15.5705156,7.63651209 C15.4100673,7.97849145 15.2556544,8.32954695 15.1059102,8.68739514 C14.7219275,8.63847573 14.341418,8.59709115 13.965805,8.56535341 C8.55702384,8.10869589 4.62865997,9.50612491 2.9044957,12.4999715 C1.18033142,15.4938751 1.93742183,19.6032788 5.03632846,24.0711587 C5.25149314,24.3814004 5.47753279,24.6910712 5.71177131,25 C5.47753274,25.3089288 5.25155006,25.6185426 5.03632846,25.9288413 C1.93747881,30.3967212 1.18038834,34.5061249 2.9044957,37.4999715 C4.41446321,40.1219846 7.6148884,41.5193566 12.0200422,41.5193566 C12.6448112,41.5193566 13.294063,41.4912151 13.965805,41.4345895 C14.341418,41.4028518 14.7219275,41.3614673 15.1059102,41.3125478 C15.2556543,41.6703389 15.4101242,42.0214515 15.5705725,42.3634308 C17.880504,47.2879682 21.0517205,50 24.4999922,50 C27.9482638,50 31.1194803,47.2879682 33.4295257,42.3634308 C33.589974,42.0214515 33.7443869,41.670396 33.8941311,41.3125478 C34.2780569,41.3614672 34.6585095,41.4028518 35.0341225,41.4345895 C35.7063199,41.4913863 36.3548886,41.5193566 36.9799992,41.5193566 C41.3846406,41.5193566 44.5856351,40.1218705 46.0955457,37.4999715 C47.819653,34.5061249 47.0625626,30.3967212 43.963656,25.9288413 C43.7484344,25.6185426 43.5223948,25.3088718 43.2881562,24.999943 Z M35.2209326,10.7896179 C39.6556936,10.4149875 42.9172121,11.4453781 44.1673194,13.6160424 C45.4174268,15.7867638 44.6768481,19.1329787 42.1356957,22.7968559 C42.0369101,22.939333 41.9352207,23.081696 41.8319371,23.2239448 C40.2757368,21.461304 38.4287595,19.7460984 36.3586464,18.1359241 C36.0028475,15.5334901 35.4446947,13.0723345 34.7001873,10.8397931 C34.8746991,10.8212414 35.0484706,10.8041738 35.2209326,10.7896179 Z M29.5451172,33.7606887 C27.875043,34.7273755 26.1829912,35.5804117 24.4999354,36.3094084 C22.8168796,35.5804118 21.1248277,34.7273756 19.4547535,33.7606887 C17.7846793,32.7940019 16.2018325,31.7514528 14.7305821,30.6547327 C14.5188336,28.828959 14.4096855,26.9333737 14.4096855,25 C14.4096855,23.0666264 14.5188336,21.1709269 14.730639,19.3451531 C16.2018894,18.2484331 17.7847362,17.205884 19.4547535,16.2391972 C21.1248277,15.2725104 22.8169365,14.4194742 24.4999354,13.6904775 C26.1829912,14.4194741 27.8749861,15.2725103 29.5451172,16.2391972 C31.2152484,17.205884 32.7980952,18.2484902 34.2694026,19.3452102 C34.481151,21.170984 34.5903561,23.0666263 34.5903561,25 C34.5903561,26.9333736 34.481208,28.8289589 34.2694595,30.6546756 C32.7980952,31.7513957 31.2152484,32.7940018 29.5451172,33.7606887 Z M33.8043416,33.7200462 C33.4624923,35.530579 33.0132598,37.2452708 32.4624519,38.8265045 C30.8211309,38.5140936 29.1153003,38.0468189 27.3803749,37.4383228 C28.4781191,36.9038052 29.573358,36.321681 30.6582912,35.6937199 C31.7432815,35.0657588 32.793768,34.4058887 33.8043416,33.7200462 Z M21.6194958,37.4383227 C19.8845704,38.0468188 18.1787398,38.5140936 16.5374757,38.8265044 C15.9867247,37.2452707 15.5374923,35.5305789 15.1956429,33.7201032 C16.2062166,34.4059457 17.2566462,35.0657586 18.3415225,35.6937198 C19.4264558,36.3217381 20.5216947,36.9038051 21.6194958,37.4383227 Z M12.3151464,28.7182195 C10.9220704,27.5161828 9.66552919,26.2687658 8.57501604,24.999943 C9.66552919,23.7311201 10.9221273,22.4837031 12.3151464,21.2816093 C12.227976,22.5019694 12.1832236,23.7439636 12.1832236,24.999943 C12.1832235,26.2559223 12.227976,27.4978595 12.3151464,28.7182195 Z M15.1956429,16.2797256 C15.5374922,14.4691928 15.9867247,12.754558 16.5374756,11.1733243 C18.1787397,11.4857352 19.8845703,11.9530099 21.6194388,12.561506 C20.5216946,13.0960236 19.4264557,13.6780907 18.3415225,14.3061089 C17.2565892,14.9340701 16.2062166,15.5938831 15.1956429,16.2797256 Z M27.3804318,12.5615061 C29.1153003,11.953067 30.8211309,11.4857923 32.4624519,11.1733244 C33.0132029,12.7545581 33.4624922,14.4692499 33.8043416,16.2797827 C32.7937679,15.5939402 31.7432814,14.9340701 30.6583481,14.306109 C29.5734149,13.6780908 28.478176,13.0959666 27.3804318,12.5615061 Z M36.6848381,21.2816664 C38.0778572,22.4837031 39.3344554,23.7311201 40.4249685,24.9999429 C39.3344554,26.2687087 38.0779142,27.5161257 36.6848381,28.7181624 C36.7720086,27.4978594 36.816761,26.2558652 36.816761,24.9999429 C36.816761,23.7439636 36.7720086,22.5020265 36.6848381,21.2816664 Z M17.5851722,8.5864738 C19.4795211,4.54819448 21.9998345,2.23214181 24.4999354,2.23214181 C27.0000363,2.23214181 29.5203497,4.54819448 31.4146415,8.5864738 C31.4883179,8.74350688 31.5604001,8.90293747 31.6316851,9.0636809 C29.3309774,9.53352436 26.9258474,10.2795315 24.4999354,11.2717912 C22.0740233,10.2795315 19.6688933,9.53352442 17.3681856,9.0636809 C17.4394706,8.90288035 17.5115528,8.74344981 17.5851722,8.5864738 Z M6.86428887,22.7967989 C4.32307957,19.1329787 3.58261472,15.7867068 4.83266511,13.6159853 C5.91406836,11.7382097 8.49940377,10.7140411 12.0488524,10.7140411 C12.602621,10.7140411 13.180474,10.738986 13.779052,10.7895608 C13.9515139,10.8041168 14.1252855,10.8212414 14.2997972,10.8397361 C13.5553467,13.0722204 12.997194,15.5333759 12.6413381,18.1357529 C10.571225,19.7459272 8.72424772,21.4611328 7.16799047,23.2238307 C7.06476381,23.0815819 6.96307444,22.939276 6.86428887,22.7967989 Z M13.778995,39.2102109 C9.34400626,39.584613 6.08271556,38.5545078 4.83260819,36.3838435 C3.58255775,34.2131792 4.32307957,30.8668501 6.86423195,27.2030871 C6.96301752,27.0606099 7.06470689,26.918304 7.16793355,26.7760552 C8.7241908,28.538696 10.5711681,30.2539016 12.6412812,31.8640189 C12.9970801,34.4663958 13.5552329,36.9275514 14.2997403,39.1600357 C14.1252854,39.1785303 13.951457,39.195655 13.778995,39.2102109 Z M31.4146415,41.4134692 C29.5202927,45.4516914 26.9999793,47.7677441 24.4999354,47.7677441 C21.9998914,47.7677441 19.4795211,45.4516914 17.5851722,41.4134692 C17.5114959,41.2564361 17.4393568,41.0969485 17.3681286,40.936148 C19.6688933,40.4663045 22.0740233,39.7202403 24.4999354,38.7279806 C26.9259043,39.7202403 29.3310344,40.4662474 31.6317421,40.9360909 C31.560457,41.0969485 31.4883179,41.2564361 31.4146415,41.4134692 Z M44.1673194,36.3838435 C42.9172121,38.5545078 39.6562629,39.5850126 35.2209326,39.2102109 C35.0484707,39.195655 34.8746991,39.1785303 34.7001874,39.1600357 C35.4446948,36.9275514 36.0028476,34.4663387 36.3586465,31.8639618 C38.4287596,30.2538445 40.2756799,28.538639 41.8319372,26.7760552 C41.9351639,26.9183041 42.0368533,27.060667 42.1356958,27.2031442 C44.6768481,30.8669643 45.4173129,34.2131792 44.1673194,36.3838435 Z" id="形状" stroke="#F4F4F4" stroke-width="0.5" fill="#888888" fill-rule="nonzero"></path>
        </g>
    </g>
</svg>