<?xml version="1.0" encoding="UTF-8"?>
<svg width="58px" height="58px" viewBox="0 0 58 58" version="1.1" xmlns="http://www.w3.org/2000/svg" xmlns:xlink="http://www.w3.org/1999/xlink">
    <!-- Generator: Sketch 52.5 (67469) - http://www.bohemiancoding.com/sketch -->
    <title>home_icon_equipment</title>
    <desc>Created with Sketch.</desc>
    <defs>
        <linearGradient x1="-19.9949753%" y1="-15.5823677%" x2="107.957449%" y2="100%" id="linearGradient-1">
            <stop stop-color="#497BCE" offset="0%"></stop>
            <stop stop-color="#30C7C9" offset="100%"></stop>
        </linearGradient>
    </defs>
    <g id="home_icon_equipment" stroke="none" stroke-width="1" fill="none" fill-rule="evenodd">
        <rect id="矩形备份-4" fill="url(#linearGradient-1)" x="0" y="0" width="58" height="58" rx="18"></rect>
        <path d="M42.4844128,24.3531347 L42.4844128,18.3847684 C42.4844128,17.0656262 41.4058959,16 40.07816,16 L12.4062528,16 C11.0785169,16 10,17.0699231 10,18.3847684 L10,33.8965052 C10,35.2156474 11.0785169,36.2812736 12.4062528,36.2812736 L34.062528,36.2812736 L34.062528,26.7422 C34.062528,25.4230578 35.1410449,24.3574316 36.4687808,24.3574316 L42.4844128,24.3574316 L42.4844128,24.3531347 Z M46.9016054,26.7679813 L37.9383138,26.7679813 C37.0574534,26.7679813 36.3398744,27.494154 36.3398744,28.387905 L36.3398744,40.634013 C36.3398744,41.5277641 37.0574534,42.2539368 37.9383138,42.2539368 L46.9016054,42.2539368 C47.7824658,42.2539368 48.5000448,41.5277641 48.5000448,40.634013 L48.5000448,28.387905 C48.5000448,27.494154 47.7824658,26.7679813 46.9016054,26.7679813 Z M44.516837,39.8777622 L40.4390979,39.8777622 C40.2285508,39.8777622 40.0566756,39.6113556 40.0566756,39.2804958 C40.0566756,38.9496361 40.2285508,38.6832295 40.4390979,38.6832295 L44.516837,38.6832295 C44.7273842,38.6832295 44.8992594,38.9496361 44.8992594,39.2804958 C44.8992594,39.6113556 44.7273842,39.8777622 44.516837,39.8777622 Z M31.6562752,39.8691684 L19.6250112,39.8691684 C18.9589948,39.8691684 18.4218848,40.4019815 18.4218848,41.063701 C18.4218848,41.7211237 18.9589948,42.2582337 19.6250112,42.2582337 L31.6562752,42.2582337 C32.3222916,42.2582337 32.8594016,41.7254206 32.8594016,41.063701 C32.8594016,40.4019815 32.3222916,39.8691684 31.6562752,39.8691684 Z" id="形状" fill="#FFFFFF" fill-rule="nonzero"></path>
    </g>
</svg>