<?xml version="1.0" encoding="UTF-8"?>
<svg width="24px" height="24px" viewBox="0 0 24 24" version="1.1" xmlns="http://www.w3.org/2000/svg" xmlns:xlink="http://www.w3.org/1999/xlink">
    <!-- Generator: Sketch 52.5 (67469) - http://www.bohemiancoding.com/sketch -->
    <title>home_icon_mac_hover</title>
    <desc>Created with Sketch.</desc>
    <g id="home_icon_mac_hover" stroke="none" stroke-width="1" fill="none" fill-rule="evenodd">
        <g fill-rule="nonzero">
            <rect id="Rectangle-path" fill="#000000" opacity="0" x="0" y="0" width="24" height="24"></rect>
            <path d="M22.2047968,2.13079332 C23.0157326,2.13079332 23.5225674,2.78799779 23.5225674,3.64741903 L23.5225674,16.2859666 L0.208164313,16.2859666 L0.208164313,3.64741903 C0.208164313,2.78799781 1.06978356,2.13079332 1.93140282,2.13079332 L22.2047968,2.13079332 Z M0.208164313,17.3981588 L0.208164313,16.8926169 L23.5225674,16.8926169 L23.5225674,17.3981588 C23.5225674,18.2575801 23.066416,18.9147845 22.2047968,18.9147845 L12.3722007,18.9147845 L12.3722007,20.9369521 L17.6432831,20.9369521 C17.947384,20.9369521 18.150118,21.1391689 18.150118,21.442494 C18.150118,21.7458192 17.947384,21.9480359 17.6432831,21.9480359 L6.49291646,21.9480359 C6.18881553,21.9480359 5.98608157,21.7458192 5.98608159,21.442494 C5.98608162,21.1391689 6.18881555,20.9369521 6.49291646,20.9369521 L11.358531,20.9369521 L11.358531,18.9147845 L1.93140282,18.9147845 C1.06978356,18.9147845 0.208164313,18.2575801 0.208164313,17.3981588 Z M11.8362228,13.1468488 C13.9125084,13.1468488 15.5956703,11.4636868 15.5956703,9.38740128 C15.5956703,7.31111576 13.9125084,5.62795379 11.8362228,5.62795379 C9.75993733,5.62795379 8.07677535,7.31111576 8.07677535,9.38740128 C8.07677535,11.4636868 9.75993733,13.1468488 11.8362228,13.1468488 Z M10.720426,11.4386411 L10.0603383,11.4386411 L11.5070306,9.3676159 L10.1511004,7.3983542 L10.8359414,7.3983542 L11.8673284,8.94405961 L12.8904644,7.3983542 L13.542301,7.3983542 L12.1863708,9.3676159 L13.6083098,11.4386411 L12.9289695,11.4386411 L11.8398248,9.77742035 L10.720426,11.4386411 Z" id="合并形状" fill="#364EB6"></path>
        </g>
    </g>
</svg>