<?xml version="1.0" encoding="UTF-8"?>
<svg width="24px" height="24px" viewBox="0 0 24 24" version="1.1" xmlns="http://www.w3.org/2000/svg" xmlns:xlink="http://www.w3.org/1999/xlink">
    <!-- Generator: Sketch 52.5 (67469) - http://www.bohemiancoding.com/sketch -->
    <title>home_icon_ios_normal</title>
    <desc>Created with Sketch.</desc>
    <g id="home_icon_ios_normal" stroke="none" stroke-width="1" fill="none" fill-rule="evenodd">
        <g>
            <rect id="矩形" x="0" y="1.69599561e-05" width="24" height="24"></rect>
            <path d="M18.3268768,12.7389558 C18.2960387,9.83300465 20.7234346,8.43675904 20.8291631,8.37566867 L20.829163,8.37566852 C19.8527442,7.00364831 18.2848433,6.16263233 16.5911276,6.10238938 C14.7848951,5.91913127 13.0667765,7.15394183 12.1504402,7.15394183 C11.2341085,7.15394183 9.82436805,6.12856969 8.33092758,6.15474999 C6.33784933,6.20525368 4.51725488,7.28649784 3.53339815,9.0039824 C1.48927316,12.4946076 3.00915141,17.7305567 5.00481694,20.5710459 C5.97841998,21.9672983 7.14145606,23.5293443 8.66574815,23.4769971 C10.1900312,23.4246376 10.6878469,22.5345285 12.4588456,22.5345285 C14.229833,22.5345285 14.7320649,23.4769971 16.287186,23.4464542 C17.8423071,23.4159112 18.8643718,22.0283864 19.833561,20.6277781 L19.8335611,20.627778 C20.5251197,19.6242459 21.0653241,18.5262491 21.4371417,17.3683994 L21.4371415,17.3683993 C19.5653126,16.5725454 18.3451433,14.7563993 18.3268994,12.7389599 L18.3268768,12.7389558 Z M15.4060677,4.1869094 L15.4060678,4.18690924 C16.2825618,3.17169042 16.7166711,1.85357098 16.6131586,0.52175609 L16.6131584,0.521756111 C15.292195,0.651640065 14.0710569,1.27587357 13.1989496,2.26707098 C12.4544295,3.13972841 11.8156402,4.49671029 11.9698304,5.8100658 C13.2694353,5.91478456 14.613088,5.15557385 15.4060857,4.18692271 L15.4060677,4.1869094 Z" id="形状" fill="#5068D0" fill-rule="nonzero"></path>
        </g>
    </g>
</svg>