<?xml version="1.0" encoding="UTF-8"?>
<svg width="24px" height="24px" viewBox="0 0 24 24" version="1.1" xmlns="http://www.w3.org/2000/svg" xmlns:xlink="http://www.w3.org/1999/xlink">
    <!-- Generator: Sketch 52.5 (67469) - http://www.bohemiancoding.com/sketch -->
    <title>home_icon_android_normal</title>
    <desc>Created with Sketch.</desc>
    <g id="home_icon_android_normal" stroke="none" stroke-width="1" fill="none" fill-rule="evenodd">
        <g>
            <rect id="矩形" x="0" y="3.4095214e-05" width="24" height="24"></rect>
            <path d="M5.63926421,17.806357 C5.63926421,18.6175837 6.28469584,19.278178 7.07802074,19.278178 L8.11683228,19.278178 C8.08192394,19.4003476 8.06247558,19.5307916 8.06247558,19.6642843 L8.06247558,22.6061778 C8.06247558,23.3754797 8.67310435,24.0000341 9.42580468,24.0000341 C10.1791374,24.0000341 10.7889922,23.3754797 10.7889922,22.6061778 L10.7889922,19.6642843 C10.7889922,19.5300203 10.768732,19.4002074 10.7346355,19.278178 L13.2666214,19.278178 C13.2319601,19.4003476 13.2122647,19.5307916 13.2122647,19.6642843 L13.2122647,22.6061778 C13.2122647,23.3754797 13.823035,24.0000341 14.5756646,24.0000341 C15.3283625,24.0000341 15.9389936,23.3754797 15.9389936,22.6061778 L15.9389936,19.6642843 C15.9389936,19.5300203 15.91951,19.4002074 15.8839311,19.278178 L16.9226011,19.278178 C17.7168794,19.278178 18.3614992,18.6175861 18.3614992,17.806357 L18.3614992,7.58722569 L5.63773622,7.58722569 L5.63773622,17.806357 L5.63925395,17.806357 L5.63926421,17.806357 Z M3.36616884,7.58724913 C2.61280068,7.58724913 2.00283975,8.2109973 2.00283975,8.98029914 L2.00283975,14.9407735 C2.00283975,15.7099699 2.61279832,16.3338235 3.36616884,16.3338235 C4.11883141,16.3338235 4.72960176,15.7099699 4.72960176,14.9407735 L4.72960174,8.98029914 C4.72960174,8.21019105 4.11883138,7.58654835 3.36616882,7.58654835 L3.36616884,7.58724946 L3.36616884,7.58724913 Z M20.6344329,7.58724913 C19.8817704,7.58724913 19.2718118,8.2109973 19.2718118,8.98029914 L19.2718118,14.9407735 C19.2718118,15.7099699 19.8817704,16.3338235 20.6344329,16.3338235 C21.3870955,16.3338235 21.9971603,15.7099699 21.9971603,14.9407735 L21.9971603,8.98029914 C21.9971603,8.21019105 21.3870955,7.58654835 20.6344329,7.58654835 L20.6344329,7.58724946 L20.6344329,7.58724913 Z M15.1290303,2.00983661 L16.2040204,0.361158909 C16.2734487,0.254624166 16.2447172,0.110019486 16.1412632,0.0395219483 C16.0356561,-0.0324476966 15.8952456,-0.00317618317 15.8250074,0.104024653 L15.2180836,1.03510825 L14.9622184,1.42647165 L14.7032123,1.82397099 C13.8818974,1.49858169 12.9662362,1.31639762 11.9998787,1.31639762 C11.0337784,1.31639762 10.1179733,1.49924895 9.29737108,1.82397099 L8.78324308,1.0351434 L8.17480188,0.104059809 C8.10533823,-0.00258016854 7.96425804,-0.0317115259 7.85932251,0.0394870265 C7.75590364,0.110860657 7.72717241,0.254660025 7.79660067,0.361194299 L8.87159085,2.009872 C6.94355304,2.92759859 5.63828535,4.66770348 5.63828535,6.65827045 L18.3614348,6.65827045 C18.3614348,4.66769411 17.0569104,2.92829234 15.1289788,2.01066888 L15.1289788,2.00982756 L15.1290141,2.00982756 L15.1290303,2.00983661 Z M9.27401791,4.79964443 C8.89733383,4.79964443 8.59233685,4.48701683 8.59233685,4.10322372 C8.59233685,3.71929234 8.89736923,3.40736552 9.27401791,3.40736552 C9.6499964,3.40736552 9.95562818,3.71862671 9.95562818,4.10322372 C9.95562818,4.48782074 9.6499964,4.79964443 9.27401791,4.79964443 Z M14.7274334,4.79964443 C14.3506077,4.79964443 14.0458231,4.48701683 14.0458231,4.10322372 C14.0458231,3.71929234 14.3506077,3.40736552 14.7274334,3.40736552 C15.1041175,3.40736552 15.4083381,3.71862671 15.4083381,4.10322372 C15.4083381,4.48782074 15.1032703,4.79964443 14.7274334,4.79964443 Z" id="形状" fill="#5068D0" fill-rule="nonzero"></path>
        </g>
    </g>
</svg>