<?xml version="1.0" encoding="UTF-8"?>
<svg width="22px" height="22px" viewBox="0 0 22 22" version="1.1" xmlns="http://www.w3.org/2000/svg" xmlns:xlink="http://www.w3.org/1999/xlink">
    <!-- Generator: Sketch 52.5 (67469) - http://www.bohemiancoding.com/sketch -->
    <title>home_icon_close</title>
    <desc>Created with Sketch.</desc>
    <g id="home_icon_close" stroke="none" stroke-width="1" fill="none" fill-rule="evenodd">
        <g>
            <rect id="矩形" fill="#000000" opacity="0" x="0" y="0" width="22" height="22"></rect>
            <path d="M18.0710249,3.92894391 C16.1822532,2.04021497 13.6710358,1 10.999984,1 C8.32893222,1 5.81771488,2.040215 3.92897511,3.92894391 C2.04020335,5.81773681 1,8.3289183 1,11.000032 C1,13.6711457 2.04020335,16.1823272 3.92897511,18.0710881 C5.81771488,19.959817 8.32893225,21 10.999984,21 C13.6710358,21 16.1822531,19.959817 18.0709929,18.0710881 C19.9597967,16.1823591 21,13.6711776 21,11.000032 C21,8.32888632 19.9597967,5.81773684 18.0710249,3.92894391 Z M17.1604551,17.1604761 C15.5148901,18.8059635 13.3271167,19.7121925 10.999952,19.7121925 C8.67285134,19.7121925 6.48501394,18.8059635 4.83948095,17.1604761 C3.19394798,15.5149247 2.2877291,13.3271907 2.2877291,11.000032 C2.2877291,8.67287326 3.19394795,6.48507533 4.83948095,4.83952394 C6.48501394,3.19397255 8.67281936,2.28774352 10.999952,2.28774352 C13.3270207,2.28774352 15.5148901,3.19397252 17.1604551,4.83952394 C18.8059561,6.48507533 19.7121749,8.67287326 19.7121749,11.000032 C19.7121749,13.3271907 18.8059561,15.5149247 17.1604551,17.1604761 Z M15.1372509,5.95213872 L11.00008,10.089356 L6.86287705,5.95213872 L5.95227523,6.86271875 L10.0894782,10.999968 L5.95227523,15.1371853 L6.86287705,16.0478613 L11.00008,11.910612 L15.1372509,16.0478613 L16.0478848,15.1371853 L11.9107138,10.999968 L16.0478848,6.86271875 L15.1372509,5.95213872 Z" id="形状" fill="#FFAA71" fill-rule="nonzero"></path>
        </g>
    </g>
</svg>