<?xml version="1.0" encoding="UTF-8"?>
<svg width="50px" height="50px" viewBox="0 0 50 50" version="1.1" xmlns="http://www.w3.org/2000/svg" xmlns:xlink="http://www.w3.org/1999/xlink">
    <!-- Generator: Sketch 52.5 (67469) - http://www.bohemiancoding.com/sketch -->
    <title>home_icon_global</title>
    <desc>Created with Sketch.</desc>
    <g id="home_icon_global" stroke="none" stroke-width="1" fill="none" fill-rule="evenodd">
        <g>
            <rect id="矩形" fill="#000000" opacity="0" x="0" y="0" width="50" height="50"></rect>
            <path d="M49.9787933,24.2056265 C49.8066079,18.4843269 47.7071058,13.240956 44.2972071,9.10813709 C43.9487016,8.68905082 43.583391,8.28234543 43.2097446,7.88429336 C39.2667512,3.69695861 33.9044616,0.867660378 27.8911082,0.171867995 C27.1856947,0.0922575939 26.4716786,0.0420018671 25.7495267,0.0210342056 C25.6822397,0.0167740902 25.6151527,0.0167740902 25.5478657,0.0126471279 C25.3674778,0.0126471279 25.1825551,0 24.9978992,0 C24.9097392,0 24.8215792,0.00838707764 24.7332192,0.00838707764 C24.5233556,0.00838707764 24.3133587,0.0167741553 24.1034953,0.0210342056 C23.5071148,0.0461287644 22.9065996,0.0839370602 22.3188218,0.146773371 C16.1586907,0.804757458 10.666095,3.70534562 6.66841832,8.01003252 C6.29477187,8.41241125 5.93352925,8.82317706 5.58909163,9.24632369 C2.24674667,13.3581084 0.184855964,18.5471632 0.0167384088,24.2056265 C0.00833583839,24.4530445 0,24.7045894 0,24.9518077 C0,25.2535418 0.00840257046,25.5512155 0.0210730605,25.8445627 C0.214131463,31.2598015 2.1415815,36.2394463 5.26165923,40.2463263 C5.60176219,40.6781263 5.95026766,41.0972125 6.31151028,41.5079783 C10.2838459,45.9719527 15.8353261,49.0066005 22.0836173,49.7317475 C22.7470847,49.8113579 23.4232894,49.8615471 24.103562,49.8867083 C24.3974509,49.8950953 24.6830041,49.9077425 24.976893,49.9077425 C25.0274416,49.9371637 25.0817914,49.9663187 25.1364746,50 C25.1910912,49.9663187 25.2499756,49.932837 25.3045922,49.8993554 C25.4557046,49.8993554 25.6026157,49.8950953 25.7496603,49.8909683 C26.5516363,49.8658738 27.3454099,49.8029708 28.1305809,49.7063866 C34.223625,48.9393709 39.6489338,45.9802731 43.5711209,41.6379776 C43.9320967,41.2355989 44.2849369,40.8165126 44.6207719,40.3847127 C47.8122045,36.3565987 49.7816006,31.3227044 49.9748591,25.8445627 C49.9873295,25.5512156 50,25.2535418 50,24.9518077 C49.9998664,24.7045894 49.9871959,24.4530445 49.9787933,24.2056265 Z M41.8955469,8.90684788 C40.0940683,10.2103686 38.0992646,11.3044127 35.9452126,12.163686 C34.1185931,8.06867539 31.435181,4.53952436 28.1639909,1.88209413 C33.5348831,2.61130154 38.3260665,5.1639602 41.8955469,8.90684788 Z M25.7495267,2.10415124 C29.4238388,4.66519698 32.4263475,8.3495084 34.4040795,12.733606 C31.6997943,13.6390081 28.7898469,14.167126 25.7495267,14.2551234 L25.7495267,2.10415124 Z M25.7495267,15.8981865 C29.0123142,15.8101891 32.1365265,15.2318154 35.0340034,14.2511296 C36.2096259,17.3106723 36.8857639,20.676542 36.9655881,24.2056931 L25.7495267,24.2056931 L25.7495267,15.8981865 Z M24.1035619,24.2056265 L13.3073609,24.2056265 C13.3828504,20.7393784 14.0338474,17.4323511 15.1718585,14.4144109 C17.9685716,15.3157525 20.9750816,15.8268967 24.1035619,15.8981865 L24.1035619,24.2056265 Z M25.7495267,25.8445627 L36.9571856,25.8445627 C36.856355,29.088687 36.2475041,32.1863043 35.2187261,35.036437 C32.2665659,34.0136163 29.0794679,33.4185351 25.7495267,33.3262775 L25.7495267,25.8445627 Z M24.1034952,2.41021202 L24.1034952,14.2594501 C21.1976157,14.1881602 18.4008359,13.7145581 15.7974479,12.8928934 C17.695489,8.60511376 20.5802955,4.9837052 24.1034952,2.41021202 Z M22.1717105,1.83163864 C18.820763,4.5351977 16.0829343,8.14415877 14.2395764,12.3480014 C11.9803593,11.4887281 9.8807238,10.3697891 7.99535315,9.02426657 C11.6485922,5.142926 16.6036919,2.50652997 22.1717105,1.83163864 Z M6.89522021,10.2523704 C8.91923278,11.719372 11.1825178,12.9390222 13.6179883,13.8654584 C12.4213595,17.0593936 11.7367522,20.5466759 11.6612627,24.2056265 L1.67977496,24.2056265 C1.8520271,18.9285743 3.76247199,14.0832555 6.89522021,10.2523704 Z M1.68817753,25.8445627 L11.6653973,25.8445627 C11.7702957,29.2187529 12.3878159,32.4461698 13.4500707,35.4220417 C10.9431786,36.394407 8.62934497,37.6770932 6.56345308,39.2153848 C3.66184153,35.489005 1.87716808,30.8743966 1.68817753,25.8445627 Z M7.61737206,40.4727102 C9.54482209,39.0475772 11.7032087,37.8614752 14.0378486,36.9519462 C15.9190847,41.4450755 18.8122937,45.2886077 22.3817074,48.1095189 C16.5364049,47.4556618 11.3463674,44.6306236 7.61737206,40.4727102 Z M24.1034952,47.3633377 C20.4459215,44.6893996 17.4770229,40.8960565 15.5833164,36.3986671 C18.2497235,35.5351338 21.1177915,35.0363705 24.1034952,34.9651472 L24.1034952,47.3633377 Z M24.1034952,33.3221506 C20.9120626,33.397501 17.8466015,33.934006 14.9952718,34.8688292 C14.0002373,32.0646256 13.4122593,29.0258508 13.3114288,25.8445627 L24.1034952,25.8445627 L24.1034952,33.3221506 Z M25.7495267,34.9651472 C28.8696044,35.0574047 31.8509734,35.6147442 34.613943,36.562015 C32.6445469,41.1559886 29.5582795,45.0162949 25.7495267,47.6653381 L25.7495267,34.9651472 Z M27.9541273,48.0593297 C31.4478514,45.2802207 34.2907785,41.5290126 36.159344,37.1405883 C38.3764151,38.0500508 40.4298365,39.2153848 42.2648586,40.5984493 C38.6158876,44.6055291 33.6019034,47.3425698 27.9541273,48.0593297 Z M43.3315148,39.3494445 C41.3580509,37.8530216 39.1450477,36.5913696 36.7555912,35.6147442 C37.8516563,32.5843564 38.4983853,29.2940367 38.6032838,25.8445627 L48.3117555,25.8445627 C48.1143624,30.9329728 46.2920108,35.6022968 43.3315148,39.3494445 Z M38.6116196,24.2056265 C38.5318621,20.4751863 37.8180461,16.9209408 36.5751365,13.6808767 C38.9014406,12.7462531 41.0638952,11.547504 43.0040157,10.1223711 C46.1954483,13.9744901 48.1437713,18.8699981 48.3160235,24.2056265 L38.6116196,24.2056265 Z" id="形状" fill="#888888" fill-rule="nonzero"></path>
        </g>
    </g>
</svg>