<?xml version="1.0" encoding="UTF-8"?>
<svg width="58px" height="58px" viewBox="0 0 58 58" version="1.1" xmlns="http://www.w3.org/2000/svg" xmlns:xlink="http://www.w3.org/1999/xlink">
    <!-- Generator: Sketch 52.5 (67469) - http://www.bohemiancoding.com/sketch -->
    <title>home_icon_global</title>
    <desc>Created with Sketch.</desc>
    <defs>
        <linearGradient x1="-19.9949753%" y1="-15.5823677%" x2="107.957449%" y2="100%" id="linearGradient-1">
            <stop stop-color="#497BCE" offset="0%"></stop>
            <stop stop-color="#30C7C9" offset="100%"></stop>
        </linearGradient>
    </defs>
    <g id="home_icon_global" stroke="none" stroke-width="1" fill="none" fill-rule="evenodd">
        <rect id="矩形" fill="url(#linearGradient-1)" x="0" y="0" width="58" height="58" rx="18"></rect>
        <rect id="矩形" fill="#000000" opacity="0" x="12" y="11" width="36" height="36"></rect>
        <path d="M33.2132497,27.1186746 C31.8362481,27.2490078 30.4365787,27.3340078 29.0029226,27.3340078 C27.5692531,27.3340078 26.169587,27.2490078 24.7982399,27.1186746 C24.7699066,27.725007 24.7529066,28.3483427 24.7529066,29.0000073 C24.7529066,29.6516753 24.7529066,30.2750077 24.7982399,30.8813401 L24.7982389,30.8813402 C27.597435,30.6263292 30.4140228,30.6263282 33.2132155,30.8813373 C33.2132155,30.2750049 33.2528824,29.6516692 33.2528824,29.0000045 C33.2528823,28.3483366 33.241549,27.7250041 33.2132155,27.1186717 L33.2132497,27.1186746 Z M24.9455624,33.0006763 C25.6085631,40.0896785 27.9602336,43.8750019 29.0085671,43.8750019 C30.0569005,43.8750019 32.4085711,40.0840007 33.0715718,33.0006763 L33.0715723,33.0006764 C30.3686389,32.7513517 27.6484996,32.7513517 24.9455628,33.0006763 L24.9455624,33.0006763 Z M22.6788919,31.108008 C22.6448919,30.4166755 22.6278919,29.7140076 22.6278919,28.9943396 C22.6278919,28.2746716 22.6278919,27.5720069 22.6788919,26.8806712 L22.520225,26.8806712 L22.5202229,26.8806708 C19.1227424,26.259055 15.938725,24.7850018 13.2665344,22.5966695 L13.2665348,22.5966687 C11.5778219,26.7122969 11.5778219,31.3273998 13.2665341,35.4429948 C15.4085366,33.6919943 18.8085405,31.6803159 22.5315449,31.1249935 C22.5768782,31.1193268 22.633545,31.1193268 22.6845451,31.1079935 L22.6788919,31.108008 Z M33.0659041,24.9993284 C32.4085711,17.9103263 30.0569005,14.1250029 29.0085771,14.1250029 C27.9602436,14.1250029 25.6085731,17.9103263 24.9512501,24.9936839 L24.9512474,24.9936836 C27.650243,25.2443889 30.3665838,25.2462861 33.0659346,24.9993508 L33.0659041,24.9993284 Z M35.808575,26.8126612 C35.6499081,26.8409945 35.4799079,26.8466612 35.3155745,26.869328 C35.3495745,27.571996 35.3722413,28.2746606 35.3722413,28.9999964 C35.3722413,29.7253288 35.3722413,30.4279968 35.3212412,31.1193293 L35.808574,31.175996 L35.8085753,31.1759963 C39.0935104,31.8091104 42.1676452,33.2546155 44.7505857,35.3806753 C46.4164714,31.2880238 46.4164714,26.7063232 44.7505858,22.6136716 C42.1711249,24.7440943 39.0953233,26.1884207 35.8085753,26.8126729 L35.808575,26.8126612 Z M35.1739065,24.7499928 C35.2759066,24.7499928 35.3835735,24.7499928 35.4799069,24.710326 L35.4799089,24.7103256 C38.569357,24.1285204 41.4426991,22.7182936 43.7929186,20.6303244 L43.7929191,20.6303253 C40.7785168,15.3010893 35.131243,12.0045161 29.0085796,12.0000004 C31.9779153,12.0000004 34.465586,17.4230021 35.1739091,24.7500043 L35.1739065,24.7499928 Z M22.8375699,33.2499953 C19.0125654,33.8166633 15.9412396,35.9926639 14.2525598,37.4433189 L14.2525603,37.4433197 C17.2808549,42.7353682 22.9113478,46.000332 29.0085775,46 C26.0335741,46 23.5458934,40.5656761 22.8375703,33.2329962 L22.8375699,33.2499953 Z M35.4799069,33.2783287 L35.1739065,33.2386619 C34.4599057,40.5713418 31.9779028,45.999988 29.0085763,45.999988 C35.1236694,45.9948483 40.7648205,42.705802 43.7815936,37.3866631 L43.7815943,37.3866638 C41.4454662,35.2789088 38.5726487,33.8572037 35.4799069,33.2783403 L35.4799069,33.2783287 Z M22.8375699,24.7783261 C23.5459029,17.4286462 26.0335736,12 29.0085779,12 C22.8926547,12.001944 17.249113,15.2889432 14.2298829,20.6076803 C15.9242171,22.047013 19.0465662,24.1946814 22.8375707,24.7613593 L22.8375699,24.7783261 Z" id="形状" fill="#FFFFFF" fill-rule="nonzero"></path>
    </g>
</svg>